<?xml version="1.0" encoding="UTF-8"?>
<svg width="169px" height="169px" viewBox="0 0 169 169" version="1.1" xmlns="http://www.w3.org/2000/svg" xmlns:xlink="http://www.w3.org/1999/xlink">
    <title>Present</title>
    <g id="Present" stroke="none" stroke-width="1" fill="none" fill-rule="evenodd">
        <g transform="translate(16.000000, 4.118348)">
            <path d="M7,64.8816522 L132,64.8816522 L132,158.881652 C132,162.195361 129.313708,164.881652 126,164.881652 L13,164.881652 C9.6862915,164.881652 7,162.195361 7,158.881652 L7,64.8816522 L7,64.8816522 Z" id="Box" fill="#A20E0E"></path>
            <path d="M6,42.8816522 L132,42.8816522 C135.313708,42.8816522 138,45.5679437 138,48.8816522 L138,67.5245094 L138,67.5245094 L0,67.5245094 L0,48.8816522 C-4.05812251e-16,45.5679437 2.6862915,42.8816522 6,42.8816522 Z" id="Deckel" fill="#A20E0E"></path>
            <path d="M59,42.8816522 C59.8739782,35.5483189 63.2073116,31.8816522 69,31.8816522 C74.7926884,31.8816522 78.1260218,35.5483189 79,42.8816522 L79,164.881652 L59,164.881652 L59,42.8816522 Z" id="Band" fill="#00440A"></path>
            <rect id="Schatten" fill="#060606" style="mix-blend-mode: overlay;" opacity="0.299532158" x="7" y="67.8816522" width="125" height="10"></rect>
            <g id="Schleife" transform="translate(18.520185, 0.000000)" stroke="#00440A" stroke-width="8">
                <path d="M40.479815,42.8816522 C16.9548499,45.0858889 -3.89960903,15.8988534 0.621141841,5.41963536 C8.18392034,-0.826937708 46.1748162,18.8132348 40.479815,42.8816522 Z" id="Schleife_rechts"></path>
                <path d="M94.4215795,38.8808939 C70.9304581,41.0992546 50.1060011,11.7251983 54.6202482,1.17883294 C62.1721467,-5.10776608 100.108388,14.6582541 94.4215795,38.8808939 Z" id="Schleife_links" transform="translate(74.500000, 19.500000) scale(-1, 1) translate(-74.500000, -19.500000) "></path>
            </g>
        </g>
    </g>
</svg>